<?xml version="1.0" encoding="utf-8"?>
<!-- Generator: Adobe Illustrator 15.1.0, SVG Export Plug-In . SVG Version: 6.00 Build 0)  -->
<!DOCTYPE svg PUBLIC "-//W3C//DTD SVG 1.1//EN" "http://www.w3.org/Graphics/SVG/1.1/DTD/svg11.dtd">
<svg version="1.1" id="Layer_1" xmlns="http://www.w3.org/2000/svg" xmlns:xlink="http://www.w3.org/1999/xlink" x="0px" y="0px"
	 width="612px" height="792px" viewBox="0 0 612 792" enable-background="new 0 0 612 792" xml:space="preserve">
<g>
	<path fill="none" stroke="#000000" stroke-width="11" stroke-miterlimit="10" d="M496.62,353.043
		c0,35.304-111.773,63.924-187.975,63.924s-197.975-28.62-197.975-63.924"/>
	<path d="M316.937,467.442c0,3.845-3.117,6.961-6.962,6.961l0,0c-3.845,0-6.962-3.116-6.962-6.961v-41.14
		c0-3.845,3.117-6.962,6.962-6.962l0,0c3.845,0,6.962,3.117,6.962,6.962V467.442z"/>
	<path d="M114.289,420.692c-2.719,2.719-7.126,2.719-9.845,0l0,0c-2.719-2.719-2.719-7.127,0-9.846l29.09-29.09
		c2.718-2.719,7.126-2.719,9.845,0l0,0c2.719,2.719,2.719,7.127,0,9.846L114.289,420.692z"/>
	<path d="M204.614,450.796c-1.953,3.312-6.221,4.414-9.533,2.462l0,0c-3.312-1.952-4.415-6.22-2.463-9.532l20.894-35.439
		c1.952-3.312,6.22-4.415,9.532-2.463l0,0c3.312,1.953,4.414,6.222,2.462,9.533L204.614,450.796z"/>
	<path d="M400.955,411.364c-0.961-3.724,1.277-7.521,5-8.482l0,0c3.723-0.962,7.52,1.276,8.481,4.999l10.286,39.833
		c0.961,3.723-1.277,7.52-5,8.482l0,0c-3.723,0.961-7.52-1.279-8.48-5L400.955,411.364z"/>
	<path d="M467.826,391.603c-2.719-2.719-2.719-7.127,0-9.846l0,0c2.719-2.719,7.127-2.719,9.846,0l29.09,29.09
		c2.719,2.719,2.719,7.127,0,9.846l0,0c-2.719,2.719-7.127,2.719-9.846,0L467.826,391.603z"/>
</g>
</svg>
